<svg width="276" height="140" viewBox="0 0 276 140" fill="none" xmlns="http://www.w3.org/2000/svg">
<path d="M54.0764 66.1601C54.5324 66.1601 55.1023 66.043 55.8115 65.7992V63.1016H52.3508V64.7733C52.3508 65.7042 52.9144 66.157 54.0764 66.157V66.1601Z" fill="white"/>
<path d="M141.255 75.1029C141.255 76.0876 140.698 76.6163 139.789 76.6131L112.088 76.5562C112.417 75.8501 112.62 75.0427 112.623 74.1847C112.629 71.0058 110.34 68.3746 106.68 68.3683L99.2614 68.3525C99.8187 67.5229 100.879 66.7915 102.849 66.7947L106.636 66.801L106.642 63.5462L102.602 63.5367C98.3875 63.5272 94.8984 66.5731 94.8889 71.696L106.674 71.7213C108.187 71.7245 109.118 72.839 109.115 74.1752C109.115 75.4606 108 76.4928 106.737 76.5403L66.4657 76.4548C65.5824 76.4548 65.0283 75.9229 65.0314 74.9382L65.0568 63.4575L61.6752 63.4512L61.6531 74.7324C61.6531 76.1699 61.9444 79.8047 66.1839 79.8142L140.09 79.9693C144.329 79.9788 144.665 76.344 144.668 74.9065L144.681 68.7483L141.274 68.7419L141.261 75.0997L141.255 75.1029Z" fill="white"/>
<path d="M141.236 65.2921C141.236 66.223 141.8 66.6758 142.962 66.6758C143.418 66.6758 143.988 66.5586 144.697 66.3148V63.6172H141.236V65.289V65.2921Z" fill="white"/>
<path d="M48.0004 71.5265C47.9213 73.7492 49.9603 74.9872 51.7049 74.9904C53.0157 74.9904 54.0511 74.5914 54.8363 73.6606V74.9207C54.8331 75.9054 54.2759 76.4342 53.3925 76.431L27.1952 76.3772C25.6786 76.374 24.7731 75.4147 24.7762 73.9234L24.7984 63.3735H24.7129L21.3567 63.3672L21.3219 79.8157C21.3219 79.8442 21.3282 79.8822 21.3346 79.9297C21.3472 80.0247 21.3662 80.1418 21.363 80.2558V80.4204L21.2111 80.4806C19.9889 80.9555 18.8617 81.1962 17.858 81.193C15.5942 81.1867 14.4005 80.069 14.4037 77.954L14.4164 71.9603L11.0158 71.954L11 78.5682C10.9937 82.2505 13.2195 84.0458 17.8074 84.0553C19.6121 84.0584 21.8601 83.5993 24.6717 82.6463L24.6812 78.8785C25.3367 79.3693 26.2042 79.7334 27.3915 79.7334L53.6648 79.7872C57.9044 79.7967 58.24 76.1619 58.2432 74.7244L58.2843 67.4073C52.7593 67.3946 48.1651 67.0083 48.0036 71.5234L48.0004 71.5265ZM52.9208 72.7234C51.9614 72.7234 51.2585 72.0363 51.2585 71.1054C51.2617 69.2627 53.6838 69.2944 54.8711 69.3197C54.8711 70.6558 54.7888 72.7265 52.9208 72.7234Z" fill="white"/>
<path d="M162.659 68.6084C163.115 68.6084 163.681 68.4913 164.391 68.2506V65.5625H160.939V67.2311C160.939 68.162 161.503 68.6116 162.659 68.6116V68.6084Z" fill="white"/>
<path d="M137.966 66.6758C138.422 66.6758 138.991 66.5586 139.701 66.3148V63.6172H136.24V65.289C136.24 66.2198 136.804 66.6726 137.966 66.6726V66.6758Z" fill="white"/>
<path d="M165.929 79.633C165.929 79.6615 165.935 79.6995 165.942 79.7439C165.954 79.8388 165.973 79.9528 165.973 80.0668V80.2283L165.821 80.2884C164.618 80.7602 163.504 80.9977 162.516 80.9977C160.284 80.9977 159.103 79.8958 159.103 77.8125V71.9043H155.75V78.4204C155.75 82.052 157.947 83.8188 162.472 83.8188C164.251 83.8188 166.464 83.3597 169.235 82.4161V71.9075H165.926V79.6362L165.929 79.633Z" fill="white"/>
<path d="M216.896 84.0365C216.896 84.9674 217.46 85.417 218.615 85.417C219.071 85.417 219.638 85.2998 220.347 85.0592V82.3711H216.896V84.0397V84.0365Z" fill="white"/>
<path d="M220.341 75.0472C220.341 76.0192 219.774 76.5986 218.824 76.5986H201.173C199.646 76.5986 200.014 75.6393 200.014 74.091V68.6419H196.604V74.5881C196.604 75.9876 195.951 76.6366 194.546 76.6366H177.359C176.422 76.6366 175.884 76.0699 175.884 75.082V63.5H172.515V74.8319C172.515 78.1311 174.146 79.9485 177.109 79.9485H194.85C196.265 79.9485 197.519 79.3786 198.206 78.4224L198.386 78.1754L198.583 78.4097C199.422 79.4166 200.618 79.9485 202.043 79.9485H219.154C223.301 79.9485 223.748 76.3707 223.748 74.8319V68.6356H220.338V75.0377L220.341 75.0472Z" fill="white"/>
<path d="M262.357 68.6443H258.896L258.89 75.0274C258.89 76.031 258.326 76.6073 257.348 76.6073H238.458V68.9862C238.218 68.9166 237.98 68.8532 237.749 68.7899C237.359 68.6886 236.986 68.5936 236.628 68.5144C236.042 68.3846 235.482 68.2896 234.966 68.2232C234.453 68.1567 233.972 68.125 233.535 68.125C232.382 68.125 231.341 68.3213 230.356 68.7234C230.245 68.7677 230.137 68.8152 230.033 68.8627C229.279 69.2078 228.684 69.8158 228.431 70.0754L228.272 70.24C228.035 70.4775 227.842 70.7086 227.677 70.9524C227.655 70.9841 227.636 71.0158 227.614 71.0506L227.582 71.1012C227.034 71.9688 226.743 73.0041 226.743 74.0997C226.743 75.8252 227.452 77.3862 228.738 78.4975C228.795 78.5482 228.855 78.5957 228.915 78.6463C229.925 79.4506 231.163 79.9033 232.512 79.9667H235.143C234.804 81.3978 233.649 82.2368 232.123 82.2368H229.878L231.309 85.4157H232.123C235.32 85.4157 237.958 83.0442 238.389 79.9667H239.424V79.9793H257.69C258.177 79.9793 258.636 79.9287 259.054 79.8337L259.181 79.8052C261.85 79.1181 262.319 76.5155 262.357 75.0274C262.357 74.9387 262.36 74.8532 262.36 74.7772V68.6474L262.357 68.6443ZM235.054 71.3735V76.5788L234.956 76.6358C234.481 76.9144 233.861 77.0537 233.104 77.0537C232.123 77.0537 231.372 76.7529 230.812 76.1355C230.349 75.5688 230.125 74.888 230.125 74.0427C230.093 73.1656 230.353 72.4374 230.904 71.8865C231.505 71.2659 232.309 70.9651 233.361 70.9651C233.918 70.9651 234.415 71.0189 234.88 71.1266L235.058 71.1677L235.051 71.3735H235.054Z" fill="white"/>
<path d="M252.928 84.0365C252.928 84.9674 253.491 85.417 254.647 85.417C255.103 85.417 255.67 85.2998 256.379 85.0592V82.3711H252.928V84.0397V84.0365Z" fill="white"/>
<path d="M188.768 84.0365C188.768 84.9674 189.331 85.417 190.487 85.417C190.943 85.417 191.51 85.2998 192.219 85.0592V82.3711H188.768V84.0397V84.0365Z" fill="white"/>
<path d="M194.647 84.0365C194.647 84.9674 195.211 85.417 196.366 85.417C196.822 85.417 197.389 85.2998 198.098 85.0592V82.3711H194.647V84.0397V84.0365Z" fill="white"/>
<path d="M113.605 15.8065C113.446 15.8002 113.424 15.5785 113.579 15.5532C116.027 15.1606 121.425 14.3722 126.918 14.1126C161.747 12.463 191.607 29.1363 204.219 51.2365L181.631 51.189L175.099 51.094C167.414 51.0782 160.275 47.1268 156.187 40.6202C147.078 26.1062 131.471 16.3543 113.605 15.8065Z" fill="white"/>
<path d="M108.83 24.1602C113.529 24.1792 118.041 24.9992 122.274 26.4588C122.261 26.5317 122.264 26.5158 122.255 26.5886C121.058 26.5222 117.905 26.4778 114.054 27.5132C108.419 29.1691 103.498 32.5918 99.8919 37.1702C98.7647 38.6931 97.7167 40.4345 96.7827 42.4229C94.3669 47.5585 89.2218 50.8577 83.5511 50.845L69.1384 50.8134C75.9205 35.0709 91.169 24.0937 108.83 24.1633" fill="white"/>
<path d="M161.69 97.0889L161.649 117.391L157.241 117.381L157.283 97.0794L150.197 97.0636L150.206 93.2578L169.238 93.2958L169.229 97.1016L161.687 97.0858L161.69 97.0889Z" fill="white"/>
<path d="M175.359 117.77C173.266 117.767 171.531 117.4 170.144 116.665C168.361 115.722 167.468 114.31 167.475 112.429C167.478 110.409 168.421 108.918 170.305 107.958C171.033 107.585 172.797 107.094 175.596 106.489C177.477 106.071 178.417 105.473 178.42 104.697C178.42 103.617 177.436 103.073 175.463 103.07C173.842 103.066 172.208 103.415 170.562 104.118L169.124 100.907C171.312 99.9034 173.627 99.4 176.071 99.4063C178.043 99.4095 179.617 99.8591 180.792 100.755C182.036 101.743 182.653 103.215 182.65 105.166L182.631 114.224C182.631 114.74 182.71 115.481 182.875 116.444C179.842 117.33 177.337 117.77 175.365 117.767L175.359 117.77ZM178.414 113.388C178.401 113.284 178.398 113.195 178.398 113.126L178.408 108.791C178.031 109.168 177.277 109.472 176.15 109.703C174.738 110.007 173.836 110.251 173.433 110.437C172.563 110.811 172.129 111.375 172.126 112.125C172.126 113.559 173.215 114.278 175.4 114.281C176.388 114.281 177.41 114.12 178.468 113.794C178.446 113.629 178.427 113.493 178.417 113.388H178.414Z" fill="white"/>
<path d="M198.725 117.468L193.137 110.584C192.808 110.185 192.304 109.748 191.623 109.277L191.608 117.455L187.377 117.445L187.431 91.5742L191.661 91.5837L191.633 105.822L197.354 99.8412L202.889 99.8539L194.733 107.592C195.318 107.782 195.812 108.099 196.211 108.545L203.877 117.477L198.731 117.468H198.725Z" fill="white"/>
<path d="M212.578 117.849C210.485 117.845 208.746 117.478 207.363 116.743C205.58 115.8 204.687 114.388 204.694 112.507C204.697 110.487 205.64 108.996 207.521 108.036C208.249 107.663 210.013 107.172 212.812 106.567C214.693 106.149 215.633 105.551 215.636 104.775C215.636 103.696 214.651 103.151 212.679 103.148C211.058 103.148 209.424 103.493 207.778 104.196L206.34 100.985C208.528 99.9784 210.842 99.4781 213.287 99.4844C215.259 99.4876 216.833 99.9372 218.008 100.833C219.252 101.824 219.869 103.293 219.866 105.244L219.847 114.302C219.847 114.818 219.926 115.559 220.088 116.522C217.055 117.408 214.55 117.849 212.578 117.845V117.849ZM215.636 113.466C215.623 113.362 215.62 113.273 215.62 113.2L215.63 108.866C215.253 109.243 214.499 109.547 213.372 109.778C211.96 110.082 211.058 110.326 210.656 110.512C209.785 110.886 209.348 111.45 209.348 112.2C209.348 113.634 210.437 114.353 212.622 114.356C213.61 114.356 214.632 114.198 215.69 113.869C215.668 113.704 215.649 113.568 215.639 113.463L215.636 113.466Z" fill="white"/>
<path d="M234.548 95.6896C233.139 95.0532 231.964 94.7334 231.024 94.7302C229.871 94.7302 229.295 95.278 229.295 96.383L229.289 99.907L234.048 99.9165L234.041 103.548L229.282 103.539L229.254 117.53L225.024 117.521L225.052 103.494L223.045 103.418L223.051 100.034L225.062 99.9323L225.071 96.0537C225.074 94.4326 225.606 93.2104 226.667 92.3904C227.633 91.64 228.937 91.2664 230.581 91.2696C231.803 91.2696 233.493 91.64 235.653 92.3714L234.554 95.6833L234.548 95.6896Z" fill="white"/>
<path d="M244.265 117.914C239.142 117.905 236.587 115.818 236.593 111.661L236.619 99.9238L240.849 99.9333L240.827 110.999C240.823 113.162 241.982 114.245 244.309 114.248C245.345 114.248 246.532 113.995 247.871 113.478C247.849 113.292 247.83 113.136 247.821 113.019C247.808 112.902 247.805 112.807 247.805 112.738L247.83 99.9428L252.06 99.9523L252.032 113.735C252.032 113.995 252.048 114.33 252.082 114.739C252.117 115.15 252.181 115.638 252.272 116.201C249.027 117.348 246.358 117.917 244.268 117.911L244.265 117.914Z" fill="white"/>
<path d="M260.476 117.947C257.892 117.941 256.6 116.728 256.607 114.309L256.654 91.7148L260.884 91.7243L260.84 113.331C260.84 114.059 261.119 114.423 261.682 114.426C261.942 114.426 262.388 114.299 263.021 114.04L264 117.355C262.73 117.751 261.556 117.95 260.473 117.947H260.476Z" fill="white"/>
<path d="M45.3028 115.279C43.6785 116.989 41.5381 117.844 38.8848 117.838C36.2537 117.831 34.107 116.961 32.4448 115.219C30.8521 113.503 30.0574 111.315 30.0638 108.662C30.0701 106.009 30.8838 103.815 32.5081 102.079C34.1324 100.344 36.2695 99.48 38.926 99.4864C41.5793 99.4927 43.7165 100.367 45.3313 102.108C46.9492 103.849 47.7534 106.047 47.7471 108.7C47.7408 111.376 46.927 113.573 45.3028 115.283V115.279ZM42.1524 104.951C41.402 103.751 40.3255 103.15 38.9165 103.147C37.5075 103.147 36.4247 103.729 35.6711 104.901C35.0569 105.907 34.7498 107.177 34.7466 108.703C34.7434 110.255 35.0442 111.512 35.6553 112.474C36.4057 113.649 37.4822 114.238 38.8912 114.241C40.3001 114.241 41.3798 113.658 42.1366 112.487C42.7476 111.524 43.0579 110.271 43.0611 108.719C43.0611 107.215 42.7603 105.958 42.1524 104.948V104.951Z" fill="white"/>
<path d="M58.965 117.877C53.8452 117.868 51.2901 115.785 51.2996 111.627L51.3249 99.8965L55.5518 99.906L55.5297 110.969C55.5265 113.128 56.6853 114.211 59.0093 114.217C60.0415 114.217 61.2288 113.964 62.5682 113.451C62.546 113.264 62.527 113.109 62.5175 112.992C62.5048 112.875 62.5017 112.78 62.5017 112.71L62.527 99.9218L66.7539 99.9313L66.7254 113.704C66.7254 113.964 66.7412 114.3 66.7761 114.708C66.8109 115.12 66.8742 115.607 66.966 116.171C63.7238 117.314 61.0547 117.884 58.965 117.881V117.877Z" fill="white"/>
<path d="M84.8965 115.362C83.0379 117.072 80.7456 117.924 78.0227 117.921C75.6037 117.914 73.362 117.535 71.2976 116.778C71.3451 116.309 71.3863 115.898 71.4243 115.546C71.4591 115.195 71.4781 114.9 71.4781 114.666L71.5256 92.8887L75.7525 92.8982L75.7335 100.513C76.9335 99.8828 78.2475 99.5662 79.6818 99.5694C82.2654 99.5757 84.2823 100.484 85.7356 102.296C87.0717 103.967 87.7366 106.127 87.7303 108.783C87.724 111.436 86.7804 113.631 84.8997 115.366L84.8965 115.362ZM81.9963 104.895C81.2237 103.79 80.0965 103.236 78.6179 103.233C77.4211 103.233 76.4554 103.511 75.7271 104.072L75.7081 113.371C75.7081 113.418 75.7081 113.488 75.7081 113.583C75.7081 113.678 75.6955 113.783 75.6733 113.9C76.3762 114.159 77.2216 114.289 78.2095 114.292C79.7356 114.292 80.9451 113.735 81.8411 112.608C82.6168 111.601 83.0095 110.284 83.0126 108.666C83.0158 107.165 82.677 105.905 81.9994 104.895H81.9963Z" fill="white"/>
<path d="M117.16 118.001C115.07 117.998 113.332 117.631 111.948 116.899C110.166 115.956 109.276 114.547 109.279 112.666C109.282 110.646 110.226 109.158 112.107 108.198C112.835 107.825 114.599 107.334 117.394 106.729C119.272 106.311 120.215 105.713 120.215 104.937C120.215 103.858 119.234 103.316 117.258 103.31C115.637 103.307 114.003 103.655 112.36 104.358L110.923 101.147C113.107 100.144 115.422 99.6402 117.866 99.6465C119.839 99.6497 121.412 100.099 122.584 100.995C123.825 101.983 124.445 103.452 124.442 105.403L124.423 114.455C124.423 114.971 124.502 115.712 124.664 116.674C121.634 117.561 119.129 118.001 117.157 117.998L117.16 118.001ZM120.215 113.619C120.203 113.515 120.196 113.426 120.196 113.356L120.206 109.025C119.829 109.402 119.079 109.702 117.952 109.937C116.543 110.241 115.637 110.485 115.238 110.671C114.367 111.045 113.934 111.609 113.93 112.359C113.93 113.79 115.016 114.509 117.201 114.515C118.186 114.515 119.209 114.354 120.266 114.028C120.244 113.863 120.225 113.727 120.215 113.622V113.619Z" fill="white"/>
<path d="M140.445 117.695L140.467 106.632C140.47 104.473 139.311 103.39 136.987 103.384C135.955 103.384 134.768 103.637 133.428 104.15C133.451 104.315 133.47 104.457 133.479 104.574C133.492 104.691 133.498 104.799 133.495 104.891L133.47 117.679L129.243 117.67L129.271 103.897C129.271 103.637 129.255 103.305 129.22 102.893C129.186 102.481 129.122 101.994 129.031 101.43C132.346 100.262 135.012 99.6824 137.032 99.6856C142.151 99.6951 144.706 101.791 144.697 105.97L144.672 117.701L140.445 117.692V117.695Z" fill="white"/>
<path d="M103.599 100.005L99.0969 113.382L94.0879 99.9861L89.3323 99.9766L95.8864 115.7C96.3993 116.922 97.0579 117.616 97.8557 117.783C97.0579 119.8 95.842 121.257 94.2114 122.169L96.4499 125.278C98.5396 124.128 100.173 121.918 101.342 118.635L108.073 100.015L103.599 100.005Z" fill="white"/>
<path d="M17.0886 118.001C16.1451 118.001 15.1699 117.947 14.1694 117.843C13.1657 117.738 12.1113 117.589 11 117.399V93.7542C13.5013 93.2824 15.553 93.0449 17.1583 93.0449C23.3641 93.0449 26.467 95.3214 26.467 99.8776C26.467 101.011 26.1314 102.05 25.457 102.993C24.7857 103.937 23.9182 104.633 22.8543 105.083V105.153C24.2696 105.485 25.3715 106.172 26.163 107.223C26.9546 108.274 27.3472 109.519 27.3472 110.959C27.3472 115.655 23.9245 118.004 17.0823 118.004L17.0886 118.001ZM20.5208 97.3668C19.8116 97.0375 18.7636 96.8729 17.3704 96.8729C17.0633 96.8729 16.7499 96.8919 16.4332 96.9267C16.1134 96.9615 15.7778 97.0027 15.4232 97.0502V103.281H17.5826C20.486 103.281 21.9361 102.195 21.9361 100.023C21.9361 98.7473 21.4644 97.8639 20.5208 97.37V97.3668ZM17.6902 107.1H15.4232V113.932C15.7778 113.98 16.1198 114.021 16.4491 114.056C16.7783 114.091 17.0981 114.11 17.4053 114.11C20.9926 114.11 22.7847 112.954 22.7847 110.64C22.7847 108.325 21.0844 107.1 17.6871 107.1H17.6902Z" fill="white"/>
</svg>
