<?xml version="1.0" encoding="UTF-8"?><svg id="Layer_1" xmlns="http://www.w3.org/2000/svg" width="159" height="70" viewBox="0 0 159 70"><defs><style>.cls-1{fill:#323232;}.cls-1,.cls-2{stroke-width:0px;}.cls-2{fill:#c8102e;}</style></defs><path class="cls-1" d="M28.14,32.96c.28,0,.63-.07,1.07-.22v-1.67h-2.14v1.03c0,.58.35.86,1.07.86Z"/><path class="cls-1" d="M82.07,38.49c0,.61-.35.94-.91.93l-17.14-.04c.2-.44.33-.94.33-1.47,0-1.97-1.41-3.59-3.68-3.6h-4.59c.34-.52,1-.98,2.22-.97h2.34s0-2.01,0-2.01h-2.5c-2.61-.01-4.76,1.87-4.77,5.04l7.29.02c.94,0,1.51.69,1.51,1.52,0,.8-.69,1.43-1.47,1.46l-24.91-.05c-.55,0-.89-.33-.89-.94v-7.1s-2.08,0-2.08,0v6.98c-.02.89.17,3.14,2.79,3.14l45.72.1c2.62,0,2.83-2.24,2.83-3.13v-3.81s-2.1,0-2.1,0v3.93Z"/><path class="cls-1" d="M82.06,32.42c0,.58.35.86,1.07.86.28,0,.63-.07,1.07-.22v-1.67h-2.14v1.03Z"/><path class="cls-1" d="M24.38,36.28c-.05,1.37,1.21,2.14,2.29,2.14.81,0,1.45-.25,1.94-.82v.78c0,.61-.35.94-.89.93l-16.21-.03c-.94,0-1.5-.6-1.5-1.52v-6.53s-.04,0-.04,0h-2.08s-.02,10.17-.02,10.17c0,.02,0,.04,0,.07,0,.06.02.13.02.2v.1s-.09.04-.09.04c-.76.29-1.45.44-2.07.44-1.4,0-2.14-.7-2.14-2v-3.71s-2.1,0-2.1,0v4.09c-.01,2.28,1.36,3.39,4.2,3.39,1.12,0,2.51-.28,4.25-.87v-2.33c.41.3.95.53,1.68.53l16.25.03c2.62,0,2.83-2.24,2.83-3.13l.03-4.53c-3.42,0-6.26-.25-6.36,2.55ZM27.42,37.02c-.59,0-1.03-.42-1.03-1,0-1.14,1.5-1.12,2.23-1.1,0,.83-.05,2.11-1.21,2.11Z"/><path class="cls-1" d="M95.31,34.47c.28,0,.63-.07,1.07-.22v-1.66h-2.14v1.03c0,.57.35.85,1.06.85Z"/><path class="cls-1" d="M80.03,33.28c.28,0,.63-.07,1.07-.22v-1.67h-2.14v1.03c0,.58.35.86,1.07.86Z"/><path class="cls-1" d="M97.33,41.29s0,.04,0,.07c0,.06.02.13.02.2v.1l-.09.04c-.74.29-1.43.44-2.04.44-1.38,0-2.11-.68-2.11-1.97v-3.66h-2.07v4.03c0,2.25,1.36,3.34,4.16,3.34,1.1,0,2.47-.28,4.18-.87v-6.5h-2.05v4.78Z"/><path class="cls-1" d="M128.86,44.01c0,.57.35.85,1.06.85.28,0,.63-.07,1.07-.22v-1.66h-2.14v1.03Z"/><path class="cls-1" d="M130.99,38.45c0,.6-.35.96-.94.96h-10.92c-.94,0-.72-.59-.72-1.55v-3.37h-2.11v3.68c0,.87-.4,1.27-1.27,1.27h-10.63c-.58,0-.91-.35-.91-.96v-7.16h-2.08v7.01c0,2.04,1.01,3.17,2.84,3.17h10.97c.87,0,1.65-.35,2.08-.94l.11-.15.12.15c.52.62,1.26.95,2.14.95h10.59c2.57,0,2.84-2.21,2.84-3.17v-3.83h-2.11v3.96Z"/><path class="cls-1" d="M156.98,34.49h-2.14v3.95c0,.62-.35.98-.96.98h-11.69v-4.71c-.15-.04-.3-.08-.44-.12-.24-.06-.47-.12-.69-.17-.36-.08-.71-.14-1.03-.18-.32-.04-.61-.06-.89-.06-.71,0-1.36.12-1.97.37-.07.03-.14.06-.2.09-.47.21-.83.59-.99.75l-.1.1c-.15.15-.27.29-.37.44-.01.02-.03.04-.04.06l-.02.03c-.34.54-.52,1.18-.52,1.86,0,1.07.44,2.03,1.23,2.72.04.03.07.06.11.09.62.5,1.39.78,2.23.82h1.63c-.21.88-.92,1.4-1.87,1.4h0s-1.39,0-1.39,0l.89,1.97h.5c1.98,0,3.61-1.47,3.88-3.37h.64s11.3,0,11.3,0c.3,0,.58-.03.84-.09l.08-.02c1.65-.42,1.94-2.03,1.97-2.96,0-.06,0-.11,0-.15v-3.79ZM140.09,36.18v3.22l-.06.04c-.29.17-.68.26-1.14.26-.61,0-1.07-.19-1.42-.57-.29-.35-.42-.77-.42-1.3-.02-.54.14-.99.48-1.33.37-.38.87-.57,1.52-.57.34,0,.65.03.94.1l.11.03v.13Z"/><path class="cls-1" d="M151.15,44.01c0,.57.35.85,1.06.85.28,0,.63-.07,1.07-.22v-1.66h-2.14v1.03Z"/><path class="cls-1" d="M111.46,44.01c0,.57.35.85,1.06.85.28,0,.63-.07,1.07-.22v-1.66h-2.14v1.03Z"/><path class="cls-1" d="M115.1,44.01c0,.57.35.85,1.06.85.28,0,.63-.07,1.07-.22v-1.66h-2.14v1.03Z"/><path class="cls-2" d="M64.96,1.81c-.1,0-.11-.14-.02-.16,1.51-.24,4.85-.73,8.25-.89,21.54-1.02,40.02,9.29,47.82,22.96l-13.97-.03-4.04-.06c-4.75,0-9.17-2.45-11.7-6.48-5.64-8.98-15.29-15.01-26.34-15.35"/><path class="cls-2" d="M62.01,6.97c2.91.01,5.7.52,8.32,1.42,0,.04,0,.03-.01.08-.74-.04-2.69-.07-5.07.57-3.49,1.02-6.53,3.14-8.76,5.97-.7.94-1.35,2.02-1.92,3.25-1.49,3.18-4.68,5.22-8.19,5.21l-8.92-.02c4.2-9.74,13.63-16.53,24.55-16.49"/><path class="cls-1" d="M94.71,52.09l-.03,12.56h-2.73s.03-12.56.03-12.56h-4.38s0-2.36,0-2.36l11.77.02v2.35s-4.67,0-4.67,0Z"/><path class="cls-1" d="M103.16,64.88c-1.29,0-2.37-.23-3.23-.68-1.1-.58-1.65-1.46-1.65-2.62,0-1.25.59-2.17,1.75-2.77.45-.23,1.54-.53,3.27-.91,1.16-.26,1.75-.63,1.75-1.11,0-.67-.61-1-1.83-1.01-1,0-2.01.21-3.03.65l-.89-1.99c1.35-.62,2.79-.93,4.3-.93,1.22,0,2.19.28,2.92.83.77.61,1.15,1.52,1.15,2.73v5.6c-.01.32.04.78.14,1.37-1.88.55-3.42.82-4.65.82ZM105.06,62.17c0-.07-.01-.12-.01-.16v-2.68c-.23.23-.69.42-1.39.56-.87.19-1.43.34-1.68.45-.54.23-.81.58-.81,1.04,0,.89.67,1.33,2.03,1.33.61,0,1.24-.1,1.9-.3-.01-.1-.03-.19-.03-.25Z"/><path class="cls-1" d="M117.62,64.69l-3.46-4.26c-.2-.25-.52-.52-.94-.81v5.06s-2.63,0-2.63,0l.03-16h2.62s-.02,8.81-.02,8.81l3.54-3.7h3.42s-5.05,4.79-5.05,4.79c.36.12.67.31.91.59l4.74,5.53h-3.18Z"/><path class="cls-1" d="M126.19,64.93c-1.29,0-2.37-.23-3.23-.68-1.1-.58-1.65-1.46-1.65-2.62,0-1.25.59-2.17,1.75-2.77.45-.23,1.54-.53,3.27-.91,1.16-.26,1.75-.63,1.75-1.11,0-.67-.61-1-1.83-1.01-1,0-2.01.21-3.03.65l-.89-1.99c1.35-.62,2.79-.93,4.3-.93,1.22,0,2.19.28,2.92.83.77.61,1.15,1.52,1.15,2.73v5.6c-.01.32.04.78.14,1.37-1.88.55-3.42.82-4.65.82ZM128.08,62.22c0-.07-.01-.12-.01-.16v-2.68c-.23.23-.69.42-1.39.56-.87.19-1.43.34-1.68.45-.54.23-.81.58-.81,1.04,0,.89.67,1.33,2.03,1.33.61,0,1.24-.1,1.9-.3-.01-.1-.03-.19-.03-.25Z"/><path class="cls-1" d="M139.78,51.22c-.87-.39-1.6-.59-2.18-.59-.71,0-1.07.34-1.07,1.02v2.18s2.94,0,2.94,0v2.25s-2.95,0-2.95,0l-.02,8.66h-2.62s.02-8.68.02-8.68l-1.24-.05v-2.09s1.25-.06,1.25-.06v-2.4c0-1,.34-1.76.99-2.27.6-.46,1.4-.69,2.42-.69.76,0,1.8.23,3.14.68l-.68,2.05Z"/><path class="cls-1" d="M145.79,64.97c-3.17,0-4.75-1.3-4.75-3.87l.02-7.26h2.62s-.01,6.85-.01,6.85c0,1.34.72,2.01,2.15,2.01.64,0,1.37-.16,2.2-.48-.01-.12-.03-.21-.03-.28,0-.07-.01-.13-.01-.17l.02-7.91h2.62s-.02,8.53-.02,8.53c0,.16,0,.37.03.62.02.25.06.56.12.9-2.01.71-3.66,1.06-4.95,1.06Z"/><path class="cls-1" d="M155.82,64.99c-1.6,0-2.4-.75-2.39-2.25l.03-13.98h2.62s-.03,13.37-.03,13.37c0,.45.17.68.52.68.16,0,.44-.08.83-.24l.61,2.05c-.79.25-1.51.37-2.18.37Z"/><path class="cls-1" d="M22.71,63.34c-1,1.06-2.33,1.59-3.97,1.58-1.63,0-2.96-.54-3.98-1.62-.99-1.06-1.48-2.41-1.47-4.06,0-1.64.51-3,1.51-4.07,1-1.07,2.33-1.61,3.97-1.6,1.64,0,2.96.54,3.96,1.62s1.5,2.44,1.5,4.08c0,1.66-.51,3.01-1.51,4.07ZM20.76,56.95c-.46-.74-1.13-1.11-2-1.12s-1.54.36-2.01,1.09c-.38.62-.57,1.41-.57,2.35,0,.96.18,1.74.56,2.33.46.73,1.13,1.09,2,1.09s1.54-.36,2.01-1.09c.38-.59.57-1.37.57-2.33,0-.93-.19-1.71-.56-2.33Z"/><path class="cls-1" d="M31.16,64.95c-3.17,0-4.75-1.3-4.74-3.87l.02-7.26h2.61s-.01,6.85-.01,6.85c0,1.34.71,2.01,2.15,2.01.64,0,1.37-.16,2.2-.47-.01-.12-.03-.21-.03-.28,0-.07-.01-.13-.01-.17l.02-7.91h2.61s-.02,8.53-.02,8.53c0,.16.01.37.03.62.02.25.06.56.12.9-2.01.71-3.66,1.06-4.95,1.06Z"/><path class="cls-1" d="M47.21,63.39c-1.15,1.06-2.57,1.59-4.25,1.58-1.5,0-2.88-.24-4.16-.71.03-.29.06-.54.08-.76.02-.22.03-.4.03-.54l.03-13.47h2.61s-.01,4.72-.01,4.72c.74-.39,1.56-.59,2.44-.58,1.6,0,2.85.57,3.74,1.69.83,1.03,1.24,2.37,1.23,4.01s-.59,3-1.75,4.07ZM45.41,56.92c-.48-.68-1.17-1.03-2.09-1.03-.74,0-1.34.17-1.79.52v5.75s-.01.07-.01.13,0,.12-.02.2c.44.16.96.24,1.57.24.94,0,1.69-.35,2.25-1.04.48-.62.72-1.44.72-2.44,0-.93-.21-1.71-.63-2.33Z"/><path class="cls-1" d="M67.16,65.02c-1.29,0-2.37-.23-3.22-.68-1.1-.58-1.65-1.46-1.65-2.62,0-1.25.59-2.17,1.75-2.76.45-.23,1.54-.53,3.27-.91,1.16-.26,1.74-.63,1.75-1.11,0-.67-.61-1-1.83-1.01-1,0-2.01.21-3.03.65l-.89-1.99c1.35-.62,2.78-.93,4.29-.93,1.22,0,2.19.28,2.92.83.77.61,1.15,1.52,1.15,2.73v5.6c-.01.32.04.78.14,1.37-1.88.55-3.42.82-4.64.82ZM69.05,62.32c0-.07-.01-.12-.01-.16v-2.68c-.23.23-.69.42-1.39.56-.87.19-1.43.34-1.68.45-.54.23-.81.58-.81,1.04,0,.89.67,1.33,2.02,1.33.61,0,1.24-.1,1.9-.3-.01-.1-.02-.19-.03-.25Z"/><path class="cls-1" d="M81.57,64.84v-6.84c.02-1.34-.7-2.01-2.14-2.01-.64,0-1.37.16-2.2.47.01.1.02.19.03.26,0,.07.01.14.01.2l-.02,7.91h-2.61s.02-8.53.02-8.53c0-.16-.01-.37-.03-.62-.02-.25-.06-.56-.12-.9,2.05-.72,3.7-1.08,4.95-1.08,3.17,0,4.75,1.3,4.74,3.89v7.26s-2.63,0-2.63,0Z"/><path class="cls-1" d="M58.77,53.89l-2.78,8.28-3.1-8.29h-2.94s4.06,9.72,4.06,9.72c.32.76.72,1.19,1.22,1.29-.49,1.25-1.25,2.15-2.25,2.71l1.39,1.92c1.29-.71,2.3-2.08,3.03-4.11l4.16-11.52h-2.77Z"/><path class="cls-1" d="M5.26,65.03c-.58,0-1.19-.03-1.81-.1-.62-.07-1.27-.16-1.96-.27v-14.63c1.55-.29,2.82-.44,3.81-.44,3.84,0,5.76,1.41,5.76,4.23,0,.7-.21,1.34-.62,1.93-.42.58-.95,1.01-1.61,1.29v.04c.88.2,1.56.63,2.05,1.28.49.65.73,1.42.73,2.31,0,2.91-2.12,4.36-6.35,4.36ZM7.38,52.26c-.44-.2-1.09-.31-1.95-.31-.19,0-.38.01-.58.03s-.41.05-.62.08v3.85h1.34c1.8,0,2.69-.67,2.69-2.01,0-.79-.29-1.34-.88-1.64ZM5.63,58.28h-1.4v4.23c.22.03.43.05.64.08.2.02.4.03.59.03,2.22,0,3.33-.71,3.33-2.15s-1.05-2.19-3.15-2.19Z"/></svg>